HIERARCHY
ROOT Hips
{
    OFFSET 0.000 93.594 0.000
    CHANNELS 6 Xposition Yposition Zposition Yrotation Xrotation Zrotation
    JOINT RightHip
    {
        OFFSET -9.500 -1.594 0.000
        CHANNELS 3 Yrotation Xrotation Zrotation
        JOINT RightKnee
        {
            OFFSET 0.000 -42.000 0.000
            CHANNELS 3 Yrotation Xrotation Zrotation
            JOINT RightAnkle
            {
                OFFSET 0.000 -42.000 0.000
                CHANNELS 3 Yrotation Xrotation Zrotation
                End Site
                {
                    OFFSET 0.000 -8.000 17.500
                }
            }
        }
    }
    JOINT LeftHip
    {
        OFFSET 9.500 -1.594 0.000
        CHANNELS 3 Yrotation Xrotation Zrotation
        JOINT LeftKnee
        {
            OFFSET 0.000 -42.000 0.000
            CHANNELS 3 Yrotation Xrotation Zrotation
            JOINT LeftAnkle
            {
                OFFSET 0.000 -42.000 0.000
                CHANNELS 3 Yrotation Xrotation Zrotation
                End Site
                {
                    OFFSET 0.000 -8.000 17.500
                }
            }
        }
    }
    JOINT Chest
    {
        OFFSET 0.000 14.348 0.000
        CHANNELS 3 Yrotation Xrotation Zrotation
        JOINT Chest2
        {
            OFFSET 0.000 9.746 0.000
            CHANNELS 3 Yrotation Xrotation Zrotation
            JOINT Chest3
            {
                OFFSET 0.000 10.149 0.000
                CHANNELS 3 Yrotation Xrotation Zrotation
                JOINT Chest4
                {
                    OFFSET 0.000 9.746 0.000
                    CHANNELS 3 Yrotation Xrotation Zrotation
                    JOINT Neck
                    {
                        OFFSET 0.000 10.417 0.000
                        CHANNELS 3 Yrotation Xrotation Zrotation
                        JOINT Head
                        {
                            OFFSET 0.000 9.000 0.000
                            CHANNELS 3 Yrotation Xrotation Zrotation
                            End Site
                            {
                                OFFSET 0.000 16.000 0.000
                            }
                        }
                    }
                    JOINT RightCollar
                    {
                        OFFSET -3.200 6.945 0.000
                        CHANNELS 3 Yrotation Xrotation Zrotation
                        JOINT RightShoulder
                        {
                            OFFSET -12.800 0.000 0.000
                            CHANNELS 3 Yrotation Xrotation Zrotation
                            JOINT RightElbow
                            {
OFFSET -0 -27 0.000
						CHANNELS 3 Xrotation Yrotation Zrotation
                                JOINT RightWrist
                                {
OFFSET -0 -26 0.000
						CHANNELS 3 Xrotation Yrotation Zrotation
                                    JOINT RightFinger0
                                    {
OFFSET -0.196 -2.56 3.210
						CHANNELS 3 Xrotation Yrotation Zrotation
                                        JOINT RightFinger01
                                        {
OFFSET -0 -3.788 0.000
						CHANNELS 3 Xrotation Yrotation Zrotation
                                            JOINT RightFinger0Nub
                                            {
OFFSET -0 -2.631 0.000
						CHANNELS 3 Xrotation Yrotation Zrotation
                                                End Site
                                                {
OFFSET 0 -2.256 0
                                                }
                                            }
                                        }
                                    }
                                    JOINT RightFinger1
                                    {
OFFSET -0.523 -3.316 2.035
						CHANNELS 3 Xrotation Yrotation Zrotation
                                        JOINT RightFinger11
                                        {
OFFSET 0.094 -5.366 1.028
						CHANNELS 3 Xrotation Yrotation Zrotation
                                            JOINT RightFinger12
                                            {
OFFSET -0 -3.723 0.000
						CHANNELS 3 Xrotation Yrotation Zrotation
                                                JOINT RightFinger1Nub
                                                {
OFFSET -0 -2.111 0.000
						CHANNELS 3 Xrotation Yrotation Zrotation
                                                    End Site
                                                    {
OFFSET 0 -1.857 0
                                                    }
                                                }
                                            }
                                        }
                                    }
                                    JOINT RightFinger2
                                    {
OFFSET -0.532 -3.479 0.778
						CHANNELS 3 Xrotation Yrotation Zrotation
                                        JOINT RightFinger21
                                        {
OFFSET 0.086 -5.322 0.323
						CHANNELS 3 Xrotation Yrotation Zrotation
                                            JOINT RightFinger22
                                            {
OFFSET -0 -4.062 0.000
						CHANNELS 3 Xrotation Yrotation Zrotation
                                                JOINT RightFinger2Nub
                                                {
OFFSET -0 -2.547 0.000
						CHANNELS 3 Xrotation Yrotation Zrotation
                                                    End Site
                                                    {
OFFSET 0 -2.031 0
                                                    }
                                                }
                                            }
                                        }
                                    }
                                    JOINT RightFinger3
                                    {
OFFSET -0.553 -3.461 -0.133
						CHANNELS 3 Xrotation Yrotation Zrotation
                                        JOINT RightFinger31
                                        {
OFFSET 0.023 -4.767 -0.493
						CHANNELS 3 Xrotation Yrotation Zrotation
                                            JOINT RightFinger32
                                            {
OFFSET -0 -3.541 0.000
						CHANNELS 3 Xrotation Yrotation Zrotation
                                                JOINT RightFinger3Nub
                                                {
OFFSET -0 -2.456 0.000
						CHANNELS 3 Xrotation Yrotation Zrotation
                                                    End Site
                                                    {
OFFSET 0 -1.91 0
                                                    }
                                                }
                                            }
                                        }
                                    }
                                    JOINT RightFinger4
                                    {
OFFSET -0.483 -3.251 -1.236
						CHANNELS 3 Xrotation Yrotation Zrotation
                                        JOINT RightFinger41
                                        {
OFFSET 0.023 -4.259 -1.122
						CHANNELS 3 Xrotation Yrotation Zrotation
                                            JOINT RightFinger42
                                            {
OFFSET -0 -2.835 0.000
						CHANNELS 3 Xrotation Yrotation Zrotation
                                                JOINT RightFinger4Nub
                                                {
OFFSET -0 -1.792 0.000
						CHANNELS 3 Xrotation Yrotation Zrotation
                                                    End Site
                                                    {
OFFSET 0 -1.692 0
                                                    }
                                                }
                                            }
                                        }
                                    }
                                }
                            }
                        }
                    }
                    JOINT LeftCollar
                    {
                        OFFSET 3.200 6.945 0.000
                        CHANNELS 3 Yrotation Xrotation Zrotation
                        JOINT LeftShoulder
                        {
                            OFFSET 12.800 0.000 0.000
                            CHANNELS 3 Yrotation Xrotation Zrotation
                            JOINT LeftElbow
                            {
OFFSET -0 -27 0.000
						CHANNELS 3 Xrotation Yrotation Zrotation
                                JOINT LeftWrist
                                {
OFFSET -0 -26 0.000
						CHANNELS 3 Xrotation Yrotation Zrotation
                                    JOINT LeftFinger0
                                    {
OFFSET -0.196 -2.56 3.210
						CHANNELS 3 Xrotation Yrotation Zrotation
                                        JOINT LeftFinger01
                                        {
OFFSET -0 -3.788 0.000
						CHANNELS 3 Xrotation Yrotation Zrotation
                                            JOINT LeftFinger0Nub
                                            {
OFFSET -0 -2.631 0.000
						CHANNELS 3 Xrotation Yrotation Zrotation
                                                End Site
                                                {
OFFSET 0 -2.256 0
                                                }
                                            }
                                        }
                                    }
                                    JOINT LeftFinger1
                                    {
OFFSET -0.523 -3.316 2.035
						CHANNELS 3 Xrotation Yrotation Zrotation
                                        JOINT LeftFinger11
                                        {
OFFSET 0.094 -5.366 1.028
						CHANNELS 3 Xrotation Yrotation Zrotation
                                            JOINT LeftFinger12
                                            {
OFFSET -0 -3.723 0.000
						CHANNELS 3 Xrotation Yrotation Zrotation
                                                JOINT LeftFinger1Nub
                                                {
OFFSET -0 -2.111 0.000
						CHANNELS 3 Xrotation Yrotation Zrotation
                                                    End Site
                                                    {
OFFSET 0 -1.857 0
                                                    }
                                                }
                                            }
                                        }
                                    }
                                    JOINT LeftFinger2
                                    {
OFFSET -0.532 -3.479 0.778
						CHANNELS 3 Xrotation Yrotation Zrotation
                                        JOINT LeftFinger21
                                        {
OFFSET 0.086 -5.322 0.323
						CHANNELS 3 Xrotation Yrotation Zrotation
                                            JOINT LeftFinger22
                                            {
OFFSET -0 -4.062 0.000
						CHANNELS 3 Xrotation Yrotation Zrotation
                                                JOINT LeftFinger2Nub
                                                {
OFFSET -0 -2.547 0.000
						CHANNELS 3 Xrotation Yrotation Zrotation
                                                    End Site
                                                    {
OFFSET 0 -2.031 0
                                                    }
                                                }
                                            }
                                        }
                                    }
                                    JOINT LeftFinger3
                                    {
OFFSET -0.553 -3.461 -0.133
						CHANNELS 3 Xrotation Yrotation Zrotation
                                        JOINT LeftFinger31
                                        {
OFFSET 0.023 -4.767 -0.493
						CHANNELS 3 Xrotation Yrotation Zrotation
                                            JOINT LeftFinger32
                                            {
OFFSET -0 -3.541 0.000
						CHANNELS 3 Xrotation Yrotation Zrotation
                                                JOINT LeftFinger3Nub
                                                {
OFFSET -0 -2.456 0.000
						CHANNELS 3 Xrotation Yrotation Zrotation
                                                    End Site
                                                    {
OFFSET 0 -1.91 0
                                                    }
                                                }
                                            }
                                        }
                                    }
                                    JOINT LeftFinger4
                                    {
OFFSET -0.483 -3.251 -1.236
						CHANNELS 3 Xrotation Yrotation Zrotation
                                        JOINT LeftFinger41
                                        {
OFFSET 0.023 -4.259 -1.122
						CHANNELS 3 Xrotation Yrotation Zrotation
                                            JOINT LeftFinger42
                                            {
OFFSET -0 -2.835 0.000
						CHANNELS 3 Xrotation Yrotation Zrotation
                                                JOINT LeftFinger4Nub
                                                {
OFFSET -0 -1.792 0.000
						CHANNELS 3 Xrotation Yrotation Zrotation
                                                    End Site
                                                    {
OFFSET 0 -1.692 0
                                                    }
                                                }
                                            }
                                        }
                                    }
                                }
                            }
                        }
                    }
                }
            }
        }
    }
}
MOTION

Frames: 10
Frame Time: 0.017
-83.82 90.73 83.08 143.30 -12.63 -2.32 -3.66 -0.38 -7.34 0.00 32.34 -0.00 -14.78 -17.54 12.28 -13.70 -4.07 1.46 -0.00 39.06 0.00 22.97 -21.40 -8.88 -3.29 12.47 -0.62 -0.81 3.17 -0.09 -1.36 5.24 -0.17 0.00 -0.00 0.00 -0.00 -0.00 -0.00 -0.00 0.00 -0.00 -7.45 2.98 -3.78 27.34 -51.39 -43.14 -52.92 -6.51 25.08 -27.1 3.96 24.06 -43.49 -0 14.02 23.55 -0 -15.80 1.19 -0 0.00 0 -0 0.00 -15 -0 16.91 0 -0 35.76 0 -0 17.88 0 -0 0.00 0 -0 23.07 0 -0 23.07 0 -0 23.07 0 -0 0.00 15 -0 30.12 0 -0 30.12 0 -0 30.12 0 -0 0.00 25 -0 25.70 0 -0 25.70 0 -0 25.70 -8.33 2.67 9.01 -38.87 -37.65 55.39 -55.70 3.96 -22.92 -7.81 -13.19 -10.19 -12.46 0 -30.10 -14.87 0 14.11 38.84 0 0.00 0.00 0 0.00 -15.00 0 -15.22 0.00 0 -6.32 0.00 0 -3.16 0.00 0 0.00 0.00 0 -19.87 0.00 0 -19.87 0.00 0 -19.87 0.00 0 0.00 15.00 0 -17.86 0.00 0 -17.86 0.00 0 -17.86 0.00 0 0.00 25.00 0 -26.29 0.00 0 -26.29 0.00 0 -26.29 
-83.50 90.75 82.74 143.46 -13.95 -2.56 -2.98 -0.17 -6.81 0.00 34.89 0.00 -15.66 -18.83 12.67 -13.45 -2.38 1.38 0.00 39.04 0.00 22.66 -21.79 -8.86 -3.59 14.66 -0.71 -0.88 3.74 -0.09 -1.48 6.15 -0.18 0.00 -0.00 -0.00 0.00 0.00 -0.00 -0.00 0.00 0.00 -7.60 3.18 -3.28 26.92 -50.48 -41.1 -50.75 -6.42 24.73 -26.92 4.6 24.29 -43.68 -0 13.61 23.19 -0 -16.21 1.97 -0 0.00 0 -0 0.00 -15 -0 16.74 0 -0 36.64 0 -0 18.32 0 -0 0.00 0 -0 22.67 0 -0 22.67 0 -0 22.67 0 -0 0.00 15 -0 29.84 0 -0 29.84 0 -0 29.84 0 -0 0.00 25 -0 24.35 0 -0 24.35 0 -0 24.35 -7.90 0.39 9.50 -36.64 -35.78 50.9 -54.27 2.16 -22.81 -6.32 -14.35 -7.06 -12.60 0 -30.69 -15.16 0 13.52 38.65 0 0.00 0.00 0 0.00 -15.00 0 -15.44 0.00 0 -6.16 0.00 0 -3.08 0.00 0 0.00 0.00 0 -20.19 0.00 0 -20.19 0.00 0 -20.19 0.00 0 0.00 15.00 0 -18.14 0.00 0 -18.14 0.00 0 -18.14 0.00 0 0.00 25.00 0 -26.70 0.00 0 -26.70 0.00 0 -26.70 
-82.92 90.58 82.03 143.46 -15.04 -2.47 -2.54 -0.19 -6.82 -0.00 37.25 -0.00 -16.15 -19.97 12.94 -12.52 -0.87 1.19 -0.00 39.52 -0.00 21.90 -23.11 -8.85 -4.36 16.15 -1.21 -1.08 4.14 -0.19 -1.81 6.78 -0.35 0.00 -0.00 0.00 -0.00 -0.00 0.00 -0.00 0.00 -0.00 -6.78 4.47 -3.12 25.72 -49.94 -38.36 -54.44 -5.02 22.89 -26.92 4.6 24.29 -42.25 -0 12.90 26.04 -0 -16.92 2.7 -0 0.00 0 -0 0.00 -15 -0 16.86 0 -0 33.67 0 -0 16.83 0 -0 0.00 0 -0 21.35 0 -0 21.35 0 -0 21.35 0 -0 0.00 15 -0 30.01 0 -0 30.01 0 -0 30.01 0 -0 0.00 25 -0 25.93 0 -0 25.93 0 -0 25.93 -6.89 0.62 8.67 -37.52 -36.30 53.3 -50.31 2.07 -24.61 -5.22 -15.18 -4.39 -13.80 0 -30.85 -17.55 0 13.37 41.66 0 0.00 0.00 0 0.00 -15.00 0 -15.86 0.00 0 -5.94 0.00 0 -2.97 0.00 0 0.00 0.00 0 -20.27 0.00 0 -20.27 0.00 0 -20.27 0.00 0 0.00 15.00 0 -28.09 0.00 0 -28.09 0.00 0 -28.09 0.00 0 0.00 25.00 0 -26.80 0.00 0 -26.80 0.00 0 -26.80 
-82.52 90.46 81.45 143.49 -16.00 -2.41 -2.69 -0.67 -6.53 0.00 39.81 -0.00 -16.10 -21.12 12.49 -12.13 0.53 0.89 0.00 39.63 0.00 21.62 -23.87 -8.91 -4.85 17.40 -1.59 -1.20 4.48 -0.26 -2.03 7.30 -0.48 0.00 -0.00 -0.00 -0.00 -0.00 0.00 -0.00 0.00 -0.00 -6.52 5.75 -2.94 24.73 -49.16 -35.74 -57.96 -3.5 21.26 -26.92 4.6 24.29 -40.71 -0 12.41 29.11 -0 -17.41 3.48 -0 0.00 0 -0 0.00 -15 -0 16.92 0 -0 34.00 0 -0 17.00 0 -0 0.00 0 -0 19.90 0 -0 19.90 0 -0 19.90 0 -0 0.00 15 -0 30.04 0 -0 30.04 0 -0 30.04 0 -0 0.00 25 -0 27.77 0 -0 27.77 0 -0 27.77 -6.36 0.93 7.21 -38.72 -36.31 56.08 -46.48 1.29 -26.08 -4.28 -15.76 -2.46 -14.95 0 -30.74 -19.86 0 13.47 43.31 0 0.00 0.00 0 0.00 -15.00 0 -16.25 0.00 0 -5.84 0.00 0 -2.92 0.00 0 0.00 0.00 0 -20.37 0.00 0 -20.37 0.00 0 -20.37 0.00 0 0.00 15.00 0 -28.39 0.00 0 -28.39 0.00 0 -28.39 0.00 0 0.00 25.00 0 -26.62 0.00 0 -26.62 0.00 0 -26.62 
-81.84 90.31 81.00 143.63 -16.52 -2.61 -3.53 -1.00 -6.42 -0.00 41.54 -0.00 -15.11 -22.29 11.52 -11.76 1.44 1.20 0.00 40.08 0.00 21.37 -24.52 -9.01 -5.09 18.36 -1.76 -1.26 4.74 -0.29 -2.13 7.70 -0.53 0.00 -0.00 -0.00 0.00 0.00 -0.00 -0.00 0.00 0.00 -7.00 6.57 -2.89 23.91 -48.07 -32.96 -55.64 -3.47 21.18 -26.58 5.27 24.40 -42.31 -0 12.62 25.93 -0 -17.20 6.7 -0 0.00 0 -0 0.00 -15 -0 16.06 0 -0 33.87 0 -0 16.93 0 -0 0.00 0 -0 19.17 0 -0 19.17 0 -0 19.17 0 -0 0.00 15 -0 29.41 0 -0 29.41 0 -0 29.41 0 -0 0.00 25 -0 26.11 0 -0 26.11 0 -0 26.11 -5.57 4.42 3.79 -40.75 -35.93 59.22 -45.08 -1.44 -25.39 -3.05 -16.4 -0.39 -15.28 0 -30.56 -20.51 0 13.66 42.00 0 0.00 0.00 0 0.00 -15.00 0 -17.01 0.00 0 -2.67 0.00 0 -1.33 0.00 0 0.00 0.00 0 -20.69 0.00 0 -20.69 0.00 0 -20.69 0.00 0 0.00 15.00 0 -28.77 0.00 0 -28.77 0.00 0 -28.77 0.00 0 0.00 25.00 0 -26.44 0.00 0 -26.44 0.00 0 -26.44 
-80.91 90.18 80.84 143.95 -15.95 -2.91 -4.70 -1.92 -6.18 0.00 42.54 0.00 -14.26 -23.25 10.95 -11.74 1.33 2.06 0.00 40.42 -0.00 21.04 -25.12 -9.42 -5.34 18.67 -1.78 -1.32 4.82 -0.29 -2.23 7.83 -0.53 0.00 -0.00 0.00 -0.00 0.00 0.00 -0.00 0.00 -0.00 -7.53 6.72 -2.66 23.07 -46.28 -30.32 -53.19 -3.75 21.17 -26.19 6.23 24.32 -43.92 -0 13.13 22.69 -0 -16.69 9.64 -0 0.00 0 -0 0.00 -15 -0 15.40 0 -0 33.60 0 -0 16.80 0 -0 0.00 0 -0 18.75 0 -0 18.75 0 -0 18.75 0 -0 0.00 15 -0 29.08 0 -0 29.08 0 -0 29.08 0 -0 0.00 25 -0 24.30 0 -0 24.30 0 -0 24.30 -5.02 4.61 3.07 -39.82 -35.01 57.28 -43.81 -4.51 -24.75 -1.57 -16.97 1.82 -15.85 0 -30.68 -21.66 0 13.54 42.15 0 0.00 0.00 0 0.00 -15.00 0 -17.86 0.00 0 0.70 0.00 0 0.35 0.00 0 0.00 0.00 0 -20.87 0.00 0 -20.87 0.00 0 -20.87 0.00 0 0.00 15.00 0 -29.17 0.00 0 -29.17 0.00 0 -29.17 0.00 0 0.00 25.00 0 -26.17 0.00 0 -26.17 0.00 0 -26.17 
-80.31 89.96 81.63 144.15 -14.98 -3.24 -5.69 -3.36 -5.65 0.00 43.67 -0.00 -13.59 -24.08 10.47 -10.06 -0.36 4.07 -0.00 41.56 0.00 18.60 -25.55 -9.38 -5.55 18.70 -1.77 -1.37 4.84 -0.28 -2.32 7.86 -0.51 0.00 -0.00 -0.00 -0.00 0.00 0.00 -0.00 0.00 0.00 -7.75 6.84 -2.06 22.22 -44.09 -28.21 -41.34 -3.9 22.80 -40.32 12.89 26.42 -42.57 -0 12.36 25.39 -0 -17.47 10.18 -0 0.00 0 -0 0.00 -15 -0 15.44 0 -0 33.16 0 -0 16.58 0 -0 0.00 0 -0 18.75 0 -0 18.75 0 -0 18.75 0 -0 0.00 15 -0 28.80 0 -0 28.80 0 -0 28.80 0 -0 0.00 25 -0 26.90 0 -0 26.90 0 -0 26.90 -4.74 3.66 3.49 -29.40 -33.24 45.13 -48.16 -13.71 -24.15 -0.11 -17.21 4.07 -14.20 0 -34.13 -18.36 0 10.08 36.90 0 0.00 0.00 0 0.00 -15.00 0 -18.29 0.00 0 0.77 0.00 0 0.39 0.00 0 0.00 0.00 0 -20.61 0.00 0 -20.61 0.00 0 -20.61 0.00 0 0.00 15.00 0 -29.30 0.00 0 -29.30 0.00 0 -29.30 0.00 0 0.00 25.00 0 -25.69 0.00 0 -25.69 0.00 0 -25.69 
-80.32 89.81 81.62 144.24 -15.00 -3.73 -6.46 -3.98 -5.16 0.00 44.91 0.00 -12.91 -24.77 10.09 -9.80 -0.73 4.65 -0.00 42.44 -0.00 18.27 -25.94 -9.30 -5.69 19.25 -1.81 -1.41 4.98 -0.28 -2.38 8.09 -0.52 0.00 -0.00 0.00 0.00 0.00 -0.00 -0.00 0.00 0.00 -7.76 7.24 -1.30 21.57 -42.27 -26.71 -39.82 -2.33 22.27 -45.05 13.8 26.88 -41.39 -0 11.93 27.76 -0 -17.90 11.86 -0 0.00 0 -0 0.00 -15 -0 16.08 0 -0 32.64 0 -0 16.32 0 -0 0.00 0 -0 18.75 0 -0 18.75 0 -0 18.75 0 -0 0.00 15 -0 28.69 0 -0 28.69 0 -0 28.69 0 -0 0.00 25 -0 30.15 0 -0 30.15 0 -0 30.15 -4.32 2.87 3.99 -24.97 -32.89 41.71 -48.68 -18.83 -25.79 1.32 -17.12 5.61 -14.60 0 -34.49 -19.16 0 9.72 35.83 0 0.00 0.00 0 0.00 -15.00 0 -18.11 0.00 0 0.73 0.00 0 0.37 0.00 0 0.00 0.00 0 -19.94 0.00 0 -19.94 0.00 0 -19.94 0.00 0 0.00 15.00 0 -28.62 0.00 0 -28.62 0.00 0 -28.62 0.00 0 0.00 25.00 0 -24.87 0.00 0 -24.87 0.00 0 -24.87 
-80.40 89.67 81.51 144.26 -15.53 -4.08 -6.81 -3.90 -4.87 -0.00 45.88 -0.00 -12.59 -25.27 9.80 -9.74 -0.50 4.81 -0.00 43.20 -0.00 18.32 -26.33 -9.24 -5.93 19.91 -2.00 -1.46 5.17 -0.31 -2.48 8.36 -0.58 0.00 -0.00 -0.00 0.00 0.00 -0.00 -0.00 0.00 -0.00 -7.53 8.09 -0.80 20.88 -40.87 -25.29 -37.53 -0.73 21.65 -36.13 11.54 23.75 -41.77 -0 13.46 26.99 -0 -16.37 5.78 -0 0.00 0 -0 0.00 -15 -0 16.53 0 -0 31.84 0 -0 15.92 0 -0 0.00 0 -0 19.98 0 -0 19.98 0 -0 19.98 0 -0 0.00 15 -0 27.51 0 -0 27.51 0 -0 27.51 0 -0 0.00 25 -0 24.80 0 -0 24.80 0 -0 24.80 -3.53 3.37 2.65 -22.29 -32.44 41.06 -51.92 -20.85 -26.99 5.50 -19.25 5.27 -15.14 0 -34.82 -20.24 0 9.39 34.44 0 0.00 0.00 0 0.00 -15.00 0 -17.33 0.00 0 4.41 0.00 0 2.20 0.00 0 0.00 0.00 0 -18.95 0.00 0 -18.95 0.00 0 -18.95 0.00 0 0.00 15.00 0 -26.98 0.00 0 -26.98 0.00 0 -26.98 0.00 0 0.00 25.00 0 -22.45 0.00 0 -22.45 0.00 0 -22.45 
-80.20 88.57 81.43 144.22 -15.61 -4.06 -6.97 -2.53 -4.75 -0.00 43.44 -0.00 -12.35 -24.12 9.14 -9.89 -2.15 4.91 0.00 47.11 0.00 18.76 -28.35 -10.10 -6.14 20.34 -2.28 -1.52 5.28 -0.37 -2.59 8.53 -0.68 0.00 -0.00 -0.00 0.00 -0.00 -0.00 -0.00 0.00 -0.00 -7.43 8.64 -0.34 20.36 -39.36 -24.02 -35.1 0.71 20.71 -37.14 12.62 23.63 -41.56 -0 13.83 27.41 -0 -15.99 6.09 -0 0.00 0 -0 0.00 -15 -0 16.76 0 -0 30.66 0 -0 15.33 0 -0 0.00 0 -0 19.45 0 -0 19.45 0 -0 19.45 0 -0 0.00 15 -0 26.85 0 -0 26.85 0 -0 26.85 0 -0 0.00 25 -0 28.31 0 -0 28.31 0 -0 28.31 -3.04 3.64 1.35 -19.71 -31.67 40.08 -55.02 -22.81 -27.73 9.46 -21.63 4.45 -15.69 0 -35.51 -21.34 0 8.70 32.94 0 0.00 0.00 0 0.00 -15.00 0 -16.61 0.00 0 9.03 0.00 0 4.51 0.00 0 0.00 0.00 0 -18.30 0.00 0 -18.30 0.00 0 -18.30 0.00 0 0.00 15.00 0 -24.86 0.00 0 -24.86 0.00 0 -24.86 0.00 0 0.00 25.00 0 -19.82 0.00 0 -19.82 0.00 0 -19.82 
